<?xml version="1.0"?>
<svg xmlns="http://www.w3.org/2000/svg" xmlns:xlink="http://www.w3.org/1999/xlink" version="1.1" id="Capa_1" x="0px" y="0px" width="512px" height="512px" viewBox="0 0 424.191 424.191" style="enable-background:new 0 0 424.191 424.191;" xml:space="preserve" class=""><g><g>
	<g>
		<path d="M332.012,138.72H184.266c-5.523,0-10,4.477-10,10s4.477,10,10,10h147.746c5.523,0,10-4.477,10-10    S337.536,138.72,332.012,138.72z" data-original="#000000" class="active-path" data-old_color="#46a2ab" fill="#46a2ab"/>
		<path d="M85.859,151.597l19.845,16.17c2.399,1.953,5.371,2.924,8.343,2.924c3.107,0,6.213-1.063,8.66-3.178l28.017-24.232    c4.177-3.613,4.635-9.928,1.022-14.105c-3.612-4.178-9.928-4.635-14.105-1.022l-23.716,20.512l-15.432-12.575    c-4.282-3.489-10.581-2.845-14.069,1.436C80.935,141.809,81.578,148.108,85.859,151.597z" data-original="#000000" class="active-path" data-old_color="#46a2ab" fill="#46a2ab"/>
		<path d="M332.012,228.951H184.266c-5.523,0-10,4.477-10,10s4.477,10,10,10h147.746c5.523,0,10-4.477,10-10    S337.536,228.951,332.012,228.951z" data-original="#000000" class="active-path" data-old_color="#46a2ab" fill="#46a2ab"/>
		<path d="M137.641,218.387l-23.716,20.512l-15.432-12.574c-4.282-3.489-10.581-2.846-14.069,1.436    c-3.489,4.282-2.846,10.582,1.436,14.069l19.841,16.167c2.399,1.955,5.373,2.928,8.347,2.928c3.106,0,6.212-1.062,8.661-3.178    l28.017-24.232c4.177-3.613,4.634-9.929,1.021-14.105C148.134,215.23,141.82,214.773,137.641,218.387z" data-original="#000000" class="active-path" data-old_color="#46a2ab" fill="#46a2ab"/>
		<path d="M332.012,319.182H184.266c-5.523,0-10,4.478-10,10c0,5.523,4.477,10,10,10h147.746c5.523,0,10-4.477,10-10    C342.012,323.659,337.536,319.182,332.012,319.182z" data-original="#000000" class="active-path" data-old_color="#46a2ab" fill="#46a2ab"/>
		<path d="M137.641,308.618l-23.716,20.511l-15.432-12.574c-4.282-3.49-10.581-2.847-14.069,1.436    c-3.488,4.281-2.846,10.581,1.436,14.068l19.843,16.168c2.399,1.955,5.373,2.928,8.346,2.928c3.107,0,6.213-1.062,8.659-3.18    l28.017-24.23c4.177-3.613,4.635-9.928,1.022-14.105C148.134,305.462,141.819,305.004,137.641,308.618z" data-original="#000000" class="active-path" data-old_color="#46a2ab" fill="#46a2ab"/>
		<path d="M354.086,33.189c0,0-35.71,0-47.613,0c-2.5,0-2.343-2.84-2.343-2.84v-8.401C304.13,9.846,294.284,0,282.182,0H142.007    c-12.102,0-21.948,9.846-21.948,21.948v8.776c0,0,0.206,2.465-2.544,2.465c-11.853,0-47.412,0-47.412,0    c-14.298,0-25.93,11.632-25.93,25.931v339.142c0,14.299,11.632,25.93,25.93,25.93h283.984c14.298,0,25.931-11.631,25.931-25.93    V59.12C380.016,44.821,368.384,33.189,354.086,33.189z M140.058,21.948c0-1.056,0.892-1.948,1.948-1.948h140.175    c1.056,0,1.948,0.892,1.948,1.948v11.241v29.258c0,1.056-0.893,1.948-1.948,1.948H142.007c-1.056,0-1.948-0.892-1.948-1.948    V33.189L140.058,21.948L140.058,21.948z M360.016,398.262c0,3.213-2.716,5.93-5.931,5.93H70.102c-3.214,0-5.93-2.715-5.93-5.93    V59.12c0-3.215,2.715-5.931,5.93-5.931c0,0,36.278,0,48.371,0c1.833,0,1.585,1.66,1.585,1.66v7.598v0.001    c0,5.052,1.72,9.707,4.6,13.42c2.909,3.751,7.002,6.539,11.717,7.792c0.19,0.05,0.382,0.095,0.574,0.141    c1.271,0.301,2.583,0.498,3.929,0.566c0.374,0.019,0.75,0.029,1.128,0.029h140.175c1.513,0,2.99-0.154,4.417-0.447    c1.428-0.293,2.805-0.725,4.117-1.281c0.328-0.139,0.652-0.286,0.972-0.44c7.354-3.549,12.441-11.082,12.441-19.78v-0.001v-7.41    c0,0,0.01-1.848,2.135-1.848c11.956,0,47.822,0,47.822,0c3.215,0,5.931,2.716,5.931,5.931V398.262z" data-original="#000000" class="active-path" data-old_color="#46a2ab" fill="#46a2ab"/>
	</g>
</g></g> </svg>
