<svg xmlns="http://www.w3.org/2000/svg" xmlns:xlink="http://www.w3.org/1999/xlink" version="1.1" x="0px" y="0px" viewBox="0 0 24 30" enable-background="new 0 0 24 24" xml:space="preserve"><g><path fill="none" stroke="#000000" stroke-linecap="round" stroke-linejoin="round" stroke-miterlimit="10" d="M10.117,4.053"/><g><path fill="none" stroke="#000000" stroke-linecap="round" stroke-miterlimit="10" d="M12,14.844"/><path fill="none" stroke="#000000" stroke-linecap="round" stroke-miterlimit="10" d="M12,14.844"/><path d="M0.875,15.344c-0.083,0-0.168-0.021-0.246-0.065c-0.24-0.136-0.325-0.44-0.188-0.681l3.625-6.396    C4.154,8.046,4.32,7.949,4.5,7.949h6.313c0.276,0,0.5,0.224,0.5,0.5s-0.224,0.5-0.5,0.5H4.792L1.31,15.091    C1.218,15.254,1.049,15.344,0.875,15.344z"/><path d="M23.125,15.344c-0.174,0-0.343-0.091-0.436-0.254l-3.481-6.142h-6.006c-0.276,0-0.5-0.224-0.5-0.5s0.224-0.5,0.5-0.5H19.5    c0.18,0,0.346,0.097,0.435,0.254l3.625,6.396c0.136,0.24,0.052,0.545-0.188,0.681C23.293,15.324,23.209,15.344,23.125,15.344z"/><path d="M23.125,21.642H0.875c-0.276,0-0.5-0.224-0.5-0.5v-6.298c0-0.276,0.224-0.5,0.5-0.5h7.646c0.276,0,0.5,0.224,0.5,0.5    v1.458c0,0.601,0.489,1.09,1.09,1.09h3.778c0.601,0,1.09-0.489,1.09-1.09v-1.458c0-0.276,0.224-0.5,0.5-0.5h7.646    c0.276,0,0.5,0.224,0.5,0.5v6.298C23.625,21.419,23.401,21.642,23.125,21.642z M1.375,20.642h21.25v-5.298h-6.646v0.958    c0,1.152-0.938,2.09-2.09,2.09h-3.778c-1.153,0-2.09-0.938-2.09-2.09v-0.958H1.375V20.642z"/></g><g><path fill="#000000" d="M15.023,6.216c-0.124,0-0.247-0.045-0.344-0.137L12,3.546L9.321,6.079C9.12,6.268,8.803,6.26,8.614,6.059    c-0.19-0.201-0.181-0.518,0.02-0.707l3.022-2.858c0.193-0.182,0.494-0.182,0.688,0l3.023,2.858c0.2,0.189,0.209,0.506,0.02,0.707    C15.288,6.163,15.155,6.216,15.023,6.216z"/><path fill="#000000" d="M12,14.541c-0.276,0-0.5-0.224-0.5-0.5V3.723c0-0.276,0.224-0.5,0.5-0.5s0.5,0.224,0.5,0.5v10.317    C12.5,14.317,12.276,14.541,12,14.541z"/></g></g><text x="0" y="39" fill="#000000" font-size="5px" font-weight="bold" font-family="'Helvetica Neue', Helvetica, Arial-Unicode, Arial, Sans-serif">Created by Atif Arshad</text><text x="0" y="44" fill="#000000" font-size="5px" font-weight="bold" font-family="'Helvetica Neue', Helvetica, Arial-Unicode, Arial, Sans-serif">from the Noun Project</text></svg>